<mxfile host="app.diagrams.net" modified="2021-09-07T13:38:14.815Z" agent="5.0 (X11; Linux x86_64) AppleWebKit/537.36 (KHTML, like Gecko) Chrome/94.0.4606.31 Safari/537.36" etag="FKiINjZJ5EUvFubflhYE" version="15.1.0" type="github">
  <diagram id="54f8Cikz7-x1hpb8EQNm" name="Page-1">
    <mxGraphModel dx="1422" dy="757" grid="1" gridSize="10" guides="1" tooltips="1" connect="1" arrows="1" fold="1" page="1" pageScale="1" pageWidth="690" pageHeight="980" math="0" shadow="0">
      <root>
        <mxCell id="0" />
        <mxCell id="1" parent="0" />
        <mxCell id="HVPul0pSH-IsVoVCKhjz-1" value="" style="ellipse;html=1;shape=startState;fillColor=#000000;strokeColor=#ff0000;" vertex="1" parent="1">
          <mxGeometry x="330" y="40" width="30" height="30" as="geometry" />
        </mxCell>
        <mxCell id="HVPul0pSH-IsVoVCKhjz-2" value="" style="edgeStyle=orthogonalEdgeStyle;html=1;verticalAlign=bottom;endArrow=open;endSize=8;strokeColor=#ff0000;entryX=0.5;entryY=0;entryDx=0;entryDy=0;" edge="1" source="HVPul0pSH-IsVoVCKhjz-1" parent="1" target="HVPul0pSH-IsVoVCKhjz-4">
          <mxGeometry relative="1" as="geometry">
            <mxPoint x="345" y="130" as="targetPoint" />
          </mxGeometry>
        </mxCell>
        <mxCell id="HVPul0pSH-IsVoVCKhjz-3" value="" style="ellipse;html=1;shape=endState;fillColor=#000000;strokeColor=#ff0000;" vertex="1" parent="1">
          <mxGeometry x="330" y="730" width="30" height="30" as="geometry" />
        </mxCell>
        <mxCell id="HVPul0pSH-IsVoVCKhjz-10" style="edgeStyle=orthogonalEdgeStyle;rounded=0;orthogonalLoop=1;jettySize=auto;html=1;exitX=0.5;exitY=1;exitDx=0;exitDy=0;entryX=0.5;entryY=0;entryDx=0;entryDy=0;" edge="1" parent="1" source="HVPul0pSH-IsVoVCKhjz-4" target="HVPul0pSH-IsVoVCKhjz-5">
          <mxGeometry relative="1" as="geometry" />
        </mxCell>
        <mxCell id="HVPul0pSH-IsVoVCKhjz-4" value="Input a, b" style="html=1;" vertex="1" parent="1">
          <mxGeometry x="290" y="130" width="110" height="50" as="geometry" />
        </mxCell>
        <mxCell id="HVPul0pSH-IsVoVCKhjz-5" value="a &amp;lt;= b" style="rhombus;whiteSpace=wrap;html=1;fillColor=#ffffc0;strokeColor=#ff0000;" vertex="1" parent="1">
          <mxGeometry x="305" y="240" width="80" height="40" as="geometry" />
        </mxCell>
        <mxCell id="HVPul0pSH-IsVoVCKhjz-6" value="no" style="edgeStyle=orthogonalEdgeStyle;html=1;align=left;verticalAlign=bottom;endArrow=open;endSize=8;strokeColor=#ff0000;entryX=0.5;entryY=0;entryDx=0;entryDy=0;" edge="1" source="HVPul0pSH-IsVoVCKhjz-5" parent="1" target="HVPul0pSH-IsVoVCKhjz-9">
          <mxGeometry x="-1" relative="1" as="geometry">
            <mxPoint x="475" y="260" as="targetPoint" />
          </mxGeometry>
        </mxCell>
        <mxCell id="HVPul0pSH-IsVoVCKhjz-7" value="yes" style="edgeStyle=orthogonalEdgeStyle;html=1;align=left;verticalAlign=top;endArrow=open;endSize=8;strokeColor=#ff0000;entryX=0.5;entryY=0;entryDx=0;entryDy=0;" edge="1" source="HVPul0pSH-IsVoVCKhjz-5" parent="1" target="HVPul0pSH-IsVoVCKhjz-18">
          <mxGeometry x="-1" relative="1" as="geometry">
            <mxPoint x="180" y="260" as="targetPoint" />
          </mxGeometry>
        </mxCell>
        <mxCell id="HVPul0pSH-IsVoVCKhjz-25" style="edgeStyle=orthogonalEdgeStyle;rounded=0;orthogonalLoop=1;jettySize=auto;html=1;exitX=0.5;exitY=1;exitDx=0;exitDy=0;entryX=0;entryY=0.5;entryDx=0;entryDy=0;" edge="1" parent="1" source="HVPul0pSH-IsVoVCKhjz-8" target="HVPul0pSH-IsVoVCKhjz-3">
          <mxGeometry relative="1" as="geometry" />
        </mxCell>
        <mxCell id="HVPul0pSH-IsVoVCKhjz-8" value="no" style="html=1;" vertex="1" parent="1">
          <mxGeometry x="140" y="470" width="110" height="50" as="geometry" />
        </mxCell>
        <mxCell id="HVPul0pSH-IsVoVCKhjz-13" style="edgeStyle=orthogonalEdgeStyle;rounded=0;orthogonalLoop=1;jettySize=auto;html=1;exitX=0.5;exitY=1;exitDx=0;exitDy=0;entryX=1;entryY=0.5;entryDx=0;entryDy=0;" edge="1" parent="1" source="HVPul0pSH-IsVoVCKhjz-9" target="HVPul0pSH-IsVoVCKhjz-3">
          <mxGeometry relative="1" as="geometry">
            <mxPoint x="660" y="670" as="targetPoint" />
          </mxGeometry>
        </mxCell>
        <mxCell id="HVPul0pSH-IsVoVCKhjz-9" value="b" style="html=1;" vertex="1" parent="1">
          <mxGeometry x="440" y="470" width="110" height="50" as="geometry" />
        </mxCell>
        <mxCell id="HVPul0pSH-IsVoVCKhjz-18" value="a = b" style="rhombus;whiteSpace=wrap;html=1;fillColor=#ffffc0;strokeColor=#ff0000;" vertex="1" parent="1">
          <mxGeometry x="155" y="365" width="80" height="40" as="geometry" />
        </mxCell>
        <mxCell id="HVPul0pSH-IsVoVCKhjz-19" value="no" style="edgeStyle=orthogonalEdgeStyle;html=1;align=left;verticalAlign=bottom;endArrow=open;endSize=8;strokeColor=#ff0000;entryX=0.5;entryY=0;entryDx=0;entryDy=0;" edge="1" source="HVPul0pSH-IsVoVCKhjz-18" parent="1" target="HVPul0pSH-IsVoVCKhjz-21">
          <mxGeometry x="-1" relative="1" as="geometry">
            <mxPoint x="335" y="470" as="targetPoint" />
          </mxGeometry>
        </mxCell>
        <mxCell id="HVPul0pSH-IsVoVCKhjz-20" value="yes" style="edgeStyle=orthogonalEdgeStyle;html=1;align=left;verticalAlign=top;endArrow=open;endSize=8;strokeColor=#ff0000;entryX=0.5;entryY=0;entryDx=0;entryDy=0;" edge="1" source="HVPul0pSH-IsVoVCKhjz-18" parent="1" target="HVPul0pSH-IsVoVCKhjz-8">
          <mxGeometry x="-1" relative="1" as="geometry">
            <mxPoint x="55" y="470" as="targetPoint" />
          </mxGeometry>
        </mxCell>
        <mxCell id="HVPul0pSH-IsVoVCKhjz-23" style="edgeStyle=orthogonalEdgeStyle;rounded=0;orthogonalLoop=1;jettySize=auto;html=1;exitX=0.5;exitY=1;exitDx=0;exitDy=0;entryX=0.5;entryY=0;entryDx=0;entryDy=0;" edge="1" parent="1" source="HVPul0pSH-IsVoVCKhjz-21" target="HVPul0pSH-IsVoVCKhjz-3">
          <mxGeometry relative="1" as="geometry" />
        </mxCell>
        <mxCell id="HVPul0pSH-IsVoVCKhjz-21" value="a" style="html=1;" vertex="1" parent="1">
          <mxGeometry x="290" y="470" width="110" height="50" as="geometry" />
        </mxCell>
      </root>
    </mxGraphModel>
  </diagram>
</mxfile>
